<svg id="visual" viewBox="0 0 900 300" width="900" height="300" xmlns="http://www.w3.org/2000/svg" xmlns:xlink="http://www.w3.org/1999/xlink" version="1.1"><rect width="900" height="300" fill="#c8d9ec"></rect><g><g transform="translate(488 155)"><path d="M51 -36.9C65.9 -22.1 77.5 -0.9 73.6 17C69.6 34.8 50.1 49.2 29.5 57.8C8.9 66.4 -12.9 69.3 -31.2 61.7C-49.4 54.1 -64.2 36 -69.8 14.9C-75.4 -6.2 -72 -30.4 -58.9 -44.9C-45.7 -59.4 -22.9 -64.1 -2.4 -62.2C18.1 -60.3 36.2 -51.8 51 -36.9Z" fill="none" stroke="#fde28a" stroke-width="20"></path></g><g transform="translate(791 179)"><path d="M45 -36.2C53.7 -25 52.9 -6.5 49.5 12.4C46.1 31.4 40 50.9 26.8 58.3C13.5 65.8 -6.9 61.2 -24.6 52.2C-42.3 43.2 -57.3 29.9 -61.2 13.8C-65 -2.3 -57.6 -21.2 -45.6 -33.2C-33.5 -45.1 -16.8 -50.2 0.7 -50.7C18.1 -51.3 36.3 -47.3 45 -36.2Z" fill="none" stroke="#fde28a" stroke-width="20"></path></g><g transform="translate(146 27)"><path d="M50.8 -41.1C62.6 -25.7 66.7 -4.8 62.8 15.3C59 35.3 47.2 54.4 30.6 61.6C14 68.8 -7.3 64.2 -21.8 53.9C-36.3 43.6 -43.9 27.7 -47.7 10.9C-51.5 -5.8 -51.4 -23.4 -42.8 -38.1C-34.2 -52.8 -17.1 -64.6 1.2 -65.6C19.5 -66.5 39 -56.6 50.8 -41.1Z" fill="none" stroke="#fde28a" stroke-width="20"></path></g><g transform="translate(219 216)"><path d="M46.2 -34.7C58.2 -21.9 64.9 -2.7 61.6 15C58.3 32.7 44.9 49 28.6 55.2C12.3 61.5 -6.9 57.8 -21.3 49C-35.6 40.2 -45.2 26.4 -51.5 8.9C-57.7 -8.5 -60.6 -29.6 -51.5 -41.9C-42.4 -54.1 -21.2 -57.5 -2 -55.9C17.1 -54.3 34.2 -47.6 46.2 -34.7Z" stroke="#fde28a" fill="none" stroke-width="20"></path></g><g transform="translate(653 30)"><path d="M40.6 -31.8C53.7 -15.9 66.3 1 64.1 16.2C61.9 31.4 45 44.8 28.1 49.5C11.3 54.2 -5.4 50.1 -20.1 42.7C-34.8 35.3 -47.4 24.5 -53.8 8.7C-60.3 -7.1 -60.7 -27.9 -50.7 -43.1C-40.7 -58.3 -20.3 -67.8 -3.3 -65.2C13.7 -62.6 27.4 -47.7 40.6 -31.8Z" stroke="#fde28a" fill="none" stroke-width="20"></path></g><g transform="translate(5 173)"><path d="M52.9 -40.4C64.9 -27.1 68.6 -5.3 63 12.4C57.4 30.1 42.5 43.8 25.3 51.8C8.1 59.7 -11.5 62.1 -29.1 55.5C-46.7 48.9 -62.4 33.3 -68 14.1C-73.5 -5.2 -68.9 -28.3 -55.9 -41.9C-42.9 -55.4 -21.4 -59.6 -0.5 -59.2C20.4 -58.8 40.8 -53.8 52.9 -40.4Z" stroke="#fde28a" fill="none" stroke-width="20"></path></g></g></svg>