<svg id="visual" viewBox="0 0 960 200" width="960" height="200" xmlns="http://www.w3.org/2000/svg" xmlns:xlink="http://www.w3.org/1999/xlink" version="1.1"><rect width="960" height="200" fill="#c8d9ec"></rect><g><g transform="translate(809 104)"><path d="M56.5 -30.8C67.7 -13.2 67.4 12.8 56.1 31.8C44.8 50.7 22.4 62.6 1.3 61.9C-19.8 61.1 -39.7 47.8 -52.2 28.1C-64.6 8.5 -69.7 -17.3 -59.8 -34.1C-49.8 -51 -24.9 -58.8 -1.1 -58.1C22.6 -57.5 45.3 -48.3 56.5 -30.8Z" fill="none" stroke="#119038" stroke-width="20"></path></g><g transform="translate(373 103)"><path d="M33.4 -19.3C40.8 -6.4 42.7 9.7 36.3 20.3C29.8 30.9 14.9 36.1 0.2 36C-14.4 35.8 -28.9 30.4 -36.5 19.1C-44.2 7.9 -45 -9.3 -37.8 -22.1C-30.6 -35 -15.3 -43.4 -1.2 -42.8C13 -42.1 25.9 -32.3 33.4 -19.3Z" fill="none" stroke="#119038" stroke-width="20"></path></g><g transform="translate(167 74)"><path d="M53.5 -32.9C62.9 -14.6 59.7 9 48.6 28.4C37.6 47.8 18.8 63 -0.8 63.5C-20.4 63.9 -40.8 49.6 -51.4 30.5C-62 11.3 -62.8 -12.7 -52.6 -31.5C-42.5 -50.3 -21.2 -63.8 0.4 -64C22.1 -64.3 44.1 -51.3 53.5 -32.9Z" fill="none" stroke="#119038" stroke-width="20"></path></g></g></svg>