<svg id="visual" viewBox="0 0 960 540" width="960" height="540" xmlns="http://www.w3.org/2000/svg" xmlns:xlink="http://www.w3.org/1999/xlink" version="1.1"><rect x="0" y="0" width="960" height="540" fill="#567c8d"></rect><g transform="translate(478.8531352005913 267.1399058523864)"><path d="M70.7 -97C89 -84.1 99.2 -59.8 107.4 -34.8C115.7 -9.8 122.1 16 116.3 39C110.5 62.1 92.6 82.4 71.2 96.1C49.8 109.8 24.9 116.9 1.7 114.6C-21.6 112.3 -43.1 100.7 -62.1 86.2C-81.1 71.7 -97.6 54.4 -107.3 32.9C-117 11.4 -119.8 -14.2 -110.7 -34C-101.6 -53.9 -80.6 -67.9 -60.1 -80.1C-39.7 -92.3 -19.8 -102.6 3.2 -107.1C26.3 -111.5 52.5 -109.9 70.7 -97" fill="#2f4156"></path></g></svg>