<svg id="visual" viewBox="0 0 960 540" width="960" height="540" xmlns="http://www.w3.org/2000/svg" xmlns:xlink="http://www.w3.org/1999/xlink" version="1.1"><rect x="0" y="0" width="960" height="540" fill="#567c8d"></rect><g transform="translate(480.0906886109408 260.33542610496403)"><path d="M62.7 -83.1C82.7 -71.8 101.2 -55.4 106.6 -35.4C112 -15.5 104.1 7.9 96.9 31.9C89.7 55.9 83 80.5 67 97.8C50.9 115.1 25.5 125.1 -0.1 125.2C-25.7 125.3 -51.3 115.7 -69.4 99C-87.5 82.4 -97.9 58.8 -103.7 35.1C-109.4 11.4 -110.3 -12.4 -105.3 -36.2C-100.2 -60 -89.2 -83.8 -70.7 -95.6C-52.1 -107.4 -26.1 -107.2 -2.4 -104C21.4 -100.7 42.7 -94.5 62.7 -83.1" fill="#2f4156"></path></g></svg>