<svg id="visual" viewBox="0 0 960 200" width="960" height="200" xmlns="http://www.w3.org/2000/svg" xmlns:xlink="http://www.w3.org/1999/xlink" version="1.1"><rect width="960" height="200" fill="#c8d9ec"></rect><g><g transform="translate(83 72)"><path d="M60.5 -34.4C72.3 -14.6 71.4 13 59.2 31.2C47 49.4 23.5 58.2 -0.1 58.2C-23.7 58.3 -47.3 49.6 -58.8 31.8C-70.3 14 -69.7 -12.9 -57.8 -32.7C-46 -52.5 -23 -65.2 0.7 -65.6C24.4 -66 48.8 -54.1 60.5 -34.4Z" fill="none" stroke="#f4960c" stroke-width="20"></path></g><g transform="translate(702 120)"><path d="M42.1 -22.9C50.6 -9.5 50.9 10 42.5 24.1C34.1 38.1 17.1 46.6 0.8 46.1C-15.6 45.7 -31.1 36.3 -39.6 22.3C-48.1 8.2 -49.4 -10.6 -41.7 -23.5C-33.9 -36.5 -16.9 -43.7 -0.1 -43.7C16.8 -43.6 33.5 -36.3 42.1 -22.9Z" fill="none" stroke="#f4960c" stroke-width="20"></path></g><g transform="translate(430 49)"><path d="M56.9 -33.9C66.5 -16.2 62.2 8.6 50.3 29C38.5 49.4 19.3 65.5 -0.1 65.6C-19.5 65.6 -39 49.7 -49.7 30C-60.4 10.2 -62.3 -13.4 -52.5 -31.3C-42.7 -49.1 -21.4 -61.2 1.1 -61.9C23.6 -62.5 47.3 -51.7 56.9 -33.9Z" fill="none" stroke="#f4960c" stroke-width="20"></path></g></g></svg>