<svg id="visual" viewBox="0 0 900 250" width="900" height="250" xmlns="http://www.w3.org/2000/svg" xmlns:xlink="http://www.w3.org/1999/xlink" version="1.1"><rect x="0" y="0" width="900" height="250" fill="#C8D9EC"></rect><path d="M0 188L113 185L225 193L338 193L450 185L563 184L675 182L788 189L900 190L900 251L788 251L675 251L563 251L450 251L338 251L225 251L113 251L0 251Z" fill="#fde28a"></path><path d="M0 196L113 196L225 194L338 202L450 204L563 199L675 186L788 205L900 206L900 251L788 251L675 251L563 251L450 251L338 251L225 251L113 251L0 251Z" fill="#a3eecb"></path><path d="M0 212L113 201L225 205L338 212L450 205L563 207L675 209L788 204L900 210L900 251L788 251L675 251L563 251L450 251L338 251L225 251L113 251L0 251Z" fill="#b3e0f3"></path><path d="M0 216L113 211L225 219L338 216L450 219L563 209L675 215L788 215L900 218L900 251L788 251L675 251L563 251L450 251L338 251L225 251L113 251L0 251Z" fill="#c8d9ec"></path><path d="M0 223L113 222L225 227L338 214L450 225L563 221L675 222L788 216L900 216L900 251L788 251L675 251L563 251L450 251L338 251L225 251L113 251L0 251Z" fill="#b3e0f3"></path><path d="M0 226L113 230L225 226L338 228L450 231L563 225L675 232L788 228L900 226L900 251L788 251L675 251L563 251L450 251L338 251L225 251L113 251L0 251Z" fill="#a3eecb"></path><path d="M0 235L113 239L225 237L338 235L450 240L563 238L675 238L788 236L900 236L900 251L788 251L675 251L563 251L450 251L338 251L225 251L113 251L0 251Z" fill="#fde28a"></path></svg>