<svg id="visual" viewBox="0 0 900 300" width="900" height="300" xmlns="http://www.w3.org/2000/svg" xmlns:xlink="http://www.w3.org/1999/xlink" version="1.1"><rect x="0" y="0" width="900" height="300" fill="#F5EFEB"></rect><path d="M0 197L21.5 198.2C43 199.3 86 201.7 128.8 204.7C171.7 207.7 214.3 211.3 257.2 207.3C300 203.3 343 191.7 385.8 185.5C428.7 179.3 471.3 178.7 514.2 177.7C557 176.7 600 175.3 642.8 180.5C685.7 185.7 728.3 197.3 771.2 201C814 204.7 857 200.3 878.5 198.2L900 196L900 301L878.5 301C857 301 814 301 771.2 301C728.3 301 685.7 301 642.8 301C600 301 557 301 514.2 301C471.3 301 428.7 301 385.8 301C343 301 300 301 257.2 301C214.3 301 171.7 301 128.8 301C86 301 43 301 21.5 301L0 301Z" fill="#2f4156"></path><path d="M0 218L21.5 214.8C43 211.7 86 205.3 128.8 207.5C171.7 209.7 214.3 220.3 257.2 223.8C300 227.3 343 223.7 385.8 220.2C428.7 216.7 471.3 213.3 514.2 209.8C557 206.3 600 202.7 642.8 205C685.7 207.3 728.3 215.7 771.2 218.3C814 221 857 218 878.5 216.5L900 215L900 301L878.5 301C857 301 814 301 771.2 301C728.3 301 685.7 301 642.8 301C600 301 557 301 514.2 301C471.3 301 428.7 301 385.8 301C343 301 300 301 257.2 301C214.3 301 171.7 301 128.8 301C86 301 43 301 21.5 301L0 301Z" fill="#6c6578"></path><path d="M0 237L21.5 238.5C43 240 86 243 128.8 243.5C171.7 244 214.3 242 257.2 239C300 236 343 232 385.8 228.7C428.7 225.3 471.3 222.7 514.2 226C557 229.3 600 238.7 642.8 239.2C685.7 239.7 728.3 231.3 771.2 229.3C814 227.3 857 231.7 878.5 233.8L900 236L900 301L878.5 301C857 301 814 301 771.2 301C728.3 301 685.7 301 642.8 301C600 301 557 301 514.2 301C471.3 301 428.7 301 385.8 301C343 301 300 301 257.2 301C214.3 301 171.7 301 128.8 301C86 301 43 301 21.5 301L0 301Z" fill="#a18e97"></path><path d="M0 264L21.5 260.7C43 257.3 86 250.7 128.8 251.3C171.7 252 214.3 260 257.2 261C300 262 343 256 385.8 255.3C428.7 254.7 471.3 259.3 514.2 258.3C557 257.3 600 250.7 642.8 250C685.7 249.3 728.3 254.7 771.2 254.3C814 254 857 248 878.5 245L900 242L900 301L878.5 301C857 301 814 301 771.2 301C728.3 301 685.7 301 642.8 301C600 301 557 301 514.2 301C471.3 301 428.7 301 385.8 301C343 301 300 301 257.2 301C214.3 301 171.7 301 128.8 301C86 301 43 301 21.5 301L0 301Z" fill="#cdbdbc"></path><path d="M0 262L21.5 262.2C43 262.3 86 262.7 128.8 265.7C171.7 268.7 214.3 274.3 257.2 275.7C300 277 343 274 385.8 272C428.7 270 471.3 269 514.2 269.5C557 270 600 272 642.8 271C685.7 270 728.3 266 771.2 265.5C814 265 857 268 878.5 269.5L900 271L900 301L878.5 301C857 301 814 301 771.2 301C728.3 301 685.7 301 642.8 301C600 301 557 301 514.2 301C471.3 301 428.7 301 385.8 301C343 301 300 301 257.2 301C214.3 301 171.7 301 128.8 301C86 301 43 301 21.5 301L0 301Z" fill="#f5efeb"></path></svg>