<svg id="visual" viewBox="0 0 700 200" width="700" height="200" xmlns="http://www.w3.org/2000/svg" xmlns:xlink="http://www.w3.org/1999/xlink" version="1.1"><rect x="0" y="0" width="700" height="200" fill="#F5EFEB"></rect><path d="M0 92L78 92L78 86L156 86L156 124L233 124L233 104L311 104L311 123L389 123L389 128L467 128L467 120L544 120L544 113L622 113L622 102L700 102L700 115L700 201L700 201L622 201L622 201L544 201L544 201L467 201L467 201L389 201L389 201L311 201L311 201L233 201L233 201L156 201L156 201L78 201L78 201L0 201Z" fill="#c8d9ec"></path><path d="M0 153L78 153L78 137L156 137L156 144L233 144L233 135L311 135L311 150L389 150L389 140L467 140L467 117L544 117L544 154L622 154L622 127L700 127L700 146L700 201L700 201L622 201L622 201L544 201L544 201L467 201L467 201L389 201L389 201L311 201L311 201L233 201L233 201L156 201L156 201L78 201L78 201L0 201Z" fill="#78899e"></path><path d="M0 156L78 156L78 168L156 168L156 171L233 171L233 173L311 173L311 174L389 174L389 159L467 159L467 155L544 155L544 178L622 178L622 175L700 175L700 167L700 201L700 201L622 201L622 201L544 201L544 201L467 201L467 201L389 201L389 201L311 201L311 201L233 201L233 201L156 201L156 201L78 201L78 201L0 201Z" fill="#2f4156"></path></svg>