<svg id="visual" viewBox="0 0 900 300" width="900" height="300" xmlns="http://www.w3.org/2000/svg" xmlns:xlink="http://www.w3.org/1999/xlink" version="1.1"><rect x="0" y="0" width="900" height="300" fill="none"></rect><path d="M0 81L21.5 88.7C43 96.3 86 111.7 128.8 112.7C171.7 113.7 214.3 100.3 257.2 100C300 99.7 343 112.3 385.8 119.5C428.7 126.7 471.3 128.3 514.2 122.7C557 117 600 104 642.8 92.7C685.7 81.3 728.3 71.7 771.2 68.5C814 65.3 857 68.7 878.5 70.3L900 72L900 301L878.5 301C857 301 814 301 771.2 301C728.3 301 685.7 301 642.8 301C600 301 557 301 514.2 301C471.3 301 428.7 301 385.8 301C343 301 300 301 257.2 301C214.3 301 171.7 301 128.8 301C86 301 43 301 21.5 301L0 301Z" fill="#567c8d"></path><path d="M0 124L21.5 125.3C43 126.7 86 129.3 128.8 130.5C171.7 131.7 214.3 131.3 257.2 136.3C300 141.3 343 151.7 385.8 156C428.7 160.3 471.3 158.7 514.2 156.8C557 155 600 153 642.8 147.5C685.7 142 728.3 133 771.2 124.2C814 115.3 857 106.7 878.5 102.3L900 98L900 301L878.5 301C857 301 814 301 771.2 301C728.3 301 685.7 301 642.8 301C600 301 557 301 514.2 301C471.3 301 428.7 301 385.8 301C343 301 300 301 257.2 301C214.3 301 171.7 301 128.8 301C86 301 43 301 21.5 301L0 301Z" fill="#7292a4"></path><path d="M0 171L21.5 169.5C43 168 86 165 128.8 161C171.7 157 214.3 152 257.2 149.7C300 147.3 343 147.7 385.8 149.3C428.7 151 471.3 154 514.2 159.2C557 164.3 600 171.7 642.8 170.3C685.7 169 728.3 159 771.2 157.2C814 155.3 857 161.7 878.5 164.8L900 168L900 301L878.5 301C857 301 814 301 771.2 301C728.3 301 685.7 301 642.8 301C600 301 557 301 514.2 301C471.3 301 428.7 301 385.8 301C343 301 300 301 257.2 301C214.3 301 171.7 301 128.8 301C86 301 43 301 21.5 301L0 301Z" fill="#8ea9bc"></path><path d="M0 225L21.5 222.7C43 220.3 86 215.7 128.8 209.8C171.7 204 214.3 197 257.2 195.7C300 194.3 343 198.7 385.8 198C428.7 197.3 471.3 191.7 514.2 196C557 200.3 600 214.7 642.8 222.8C685.7 231 728.3 233 771.2 234.2C814 235.3 857 235.7 878.5 235.8L900 236L900 301L878.5 301C857 301 814 301 771.2 301C728.3 301 685.7 301 642.8 301C600 301 557 301 514.2 301C471.3 301 428.7 301 385.8 301C343 301 300 301 257.2 301C214.3 301 171.7 301 128.8 301C86 301 43 301 21.5 301L0 301Z" fill="#abc1d4"></path><path d="M0 233L21.5 238C43 243 86 253 128.8 259.5C171.7 266 214.3 269 257.2 265.2C300 261.3 343 250.7 385.8 248.2C428.7 245.7 471.3 251.3 514.2 250.2C557 249 600 241 642.8 241.7C685.7 242.3 728.3 251.7 771.2 254.7C814 257.7 857 254.3 878.5 252.7L900 251L900 301L878.5 301C857 301 814 301 771.2 301C728.3 301 685.7 301 642.8 301C600 301 557 301 514.2 301C471.3 301 428.7 301 385.8 301C343 301 300 301 257.2 301C214.3 301 171.7 301 128.8 301C86 301 43 301 21.5 301L0 301Z" fill="#c8d9ec"></path></svg>