<svg id="visual" viewBox="0 0 900 250" width="900" height="250" xmlns="http://www.w3.org/2000/svg" xmlns:xlink="http://www.w3.org/1999/xlink" version="1.1"><rect x="0" y="0" width="900" height="250" fill="#f5efeb"></rect><path d="M0 192L129 186L257 178L386 175L514 188L643 178L771 171L900 184L900 251L771 251L643 251L514 251L386 251L257 251L129 251L0 251Z" fill="#f5efeb"></path><path d="M0 176L129 186L257 180L386 201L514 184L643 196L771 201L900 196L900 251L771 251L643 251L514 251L386 251L257 251L129 251L0 251Z" fill="#f5e9e7"></path><path d="M0 196L129 205L257 204L386 199L514 211L643 194L771 203L900 187L900 251L771 251L643 251L514 251L386 251L257 251L129 251L0 251Z" fill="#f4e4e6"></path><path d="M0 199L129 210L257 205L386 198L514 205L643 215L771 201L900 203L900 251L771 251L643 251L514 251L386 251L257 251L129 251L0 251Z" fill="#efdfe8"></path><path d="M0 226L129 210L257 216L386 218L514 210L643 209L771 209L900 221L900 251L771 251L643 251L514 251L386 251L257 251L129 251L0 251Z" fill="#e6dceb"></path><path d="M0 223L129 227L257 235L386 226L514 234L643 232L771 227L900 229L900 251L771 251L643 251L514 251L386 251L257 251L129 251L0 251Z" fill="#d8daed"></path><path d="M0 240L129 242L257 239L386 240L514 235L643 234L771 238L900 230L900 251L771 251L643 251L514 251L386 251L257 251L129 251L0 251Z" fill="#c8d9ec"></path></svg>