<svg id="visual" viewBox="0 0 900 300" width="900" height="100" xmlns="http://www.w3.org/2000/svg" xmlns:xlink="http://www.w3.org/1999/xlink" version="1.1"><rect x="0" y="0" width="900" height="450" fill="#2f4156"></rect><path d="M0 377L21.5 380.5C43 384 86 391 128.8 390.5C171.7 390 214.3 382 257.2 381.2C300 380.3 343 386.7 385.8 391C428.7 395.3 471.3 397.7 514.2 396C557 394.3 600 388.7 642.8 389C685.7 389.3 728.3 395.7 771.2 394.7C814 393.7 857 385.3 878.5 381.2L900 377L900 451L878.5 451C857 451 814 451 771.2 451C728.3 451 685.7 451 642.8 451C600 451 557 451 514.2 451C471.3 451 428.7 451 385.8 451C343 451 300 451 257.2 451C214.3 451 171.7 451 128.8 451C86 451 43 451 21.5 451L0 451Z" fill="#567c8d"></path><path d="M0 389L21.5 390.3C43 391.7 86 394.3 128.8 393.7C171.7 393 214.3 389 257.2 388.7C300 388.3 343 391.7 385.8 391.7C428.7 391.7 471.3 388.3 514.2 389.8C557 391.3 600 397.7 642.8 399.5C685.7 401.3 728.3 398.7 771.2 399.7C814 400.7 857 405.3 878.5 407.7L900 410L900 451L878.5 451C857 451 814 451 771.2 451C728.3 451 685.7 451 642.8 451C600 451 557 451 514.2 451C471.3 451 428.7 451 385.8 451C343 451 300 451 257.2 451C214.3 451 171.7 451 128.8 451C86 451 43 451 21.5 451L0 451Z" fill="#6f9496"></path><path d="M0 397L21.5 400C43 403 86 409 128.8 411.2C171.7 413.3 214.3 411.7 257.2 409.3C300 407 343 404 385.8 402.3C428.7 400.7 471.3 400.3 514.2 403.2C557 406 600 412 642.8 414.3C685.7 416.7 728.3 415.3 771.2 414.8C814 414.3 857 414.7 878.5 414.8L900 415L900 451L878.5 451C857 451 814 451 771.2 451C728.3 451 685.7 451 642.8 451C600 451 557 451 514.2 451C471.3 451 428.7 451 385.8 451C343 451 300 451 257.2 451C214.3 451 171.7 451 128.8 451C86 451 43 451 21.5 451L0 451Z" fill="#92aba1"></path><path d="M0 410L21.5 411.8C43 413.7 86 417.3 128.8 418.8C171.7 420.3 214.3 419.7 257.2 418C300 416.3 343 413.7 385.8 412C428.7 410.3 471.3 409.7 514.2 411.7C557 413.7 600 418.3 642.8 420.8C685.7 423.3 728.3 423.7 771.2 421.2C814 418.7 857 413.3 878.5 410.7L900 408L900 451L878.5 451C857 451 814 451 771.2 451C728.3 451 685.7 451 642.8 451C600 451 557 451 514.2 451C471.3 451 428.7 451 385.8 451C343 451 300 451 257.2 451C214.3 451 171.7 451 128.8 451C86 451 43 451 21.5 451L0 451Z" fill="#b8c1b3"></path><path d="M0 433L21.5 433C43 433 86 433 128.8 432.5C171.7 432 214.3 431 257.2 429C300 427 343 424 385.8 423.8C428.7 423.7 471.3 426.3 514.2 426.2C557 426 600 423 642.8 422.7C685.7 422.3 728.3 424.7 771.2 424.8C814 425 857 423 878.5 422L900 421L900 451L878.5 451C857 451 814 451 771.2 451C728.3 451 685.7 451 642.8 451C600 451 557 451 514.2 451C471.3 451 428.7 451 385.8 451C343 451 300 451 257.2 451C214.3 451 171.7 451 128.8 451C86 451 43 451 21.5 451L0 451Z" fill="#dad7cc"></path><path d="M0 438L21.5 438.7C43 439.3 86 440.7 128.8 440.8C171.7 441 214.3 440 257.2 438.3C300 436.7 343 434.3 385.8 433.3C428.7 432.3 471.3 432.7 514.2 432.3C557 432 600 431 642.8 431.2C685.7 431.3 728.3 432.7 771.2 433.8C814 435 857 436 878.5 436.5L900 437L900 451L878.5 451C857 451 814 451 771.2 451C728.3 451 685.7 451 642.8 451C600 451 557 451 514.2 451C471.3 451 428.7 451 385.8 451C343 451 300 451 257.2 451C214.3 451 171.7 451 128.8 451C86 451 43 451 21.5 451L0 451Z" fill="#f5efeb"></path></svg>