<svg id="visual" viewBox="0 0 900 200" width="900" height="200" xmlns="http://www.w3.org/2000/svg" xmlns:xlink="http://www.w3.org/1999/xlink" version="1.1"><rect x="0" y="0" width="900" height="200" fill="#2f4156"></rect><path d="M0 142L21.5 144C43 146 86 150 128.8 150.3C171.7 150.7 214.3 147.3 257.2 145.5C300 143.7 343 143.3 385.8 145.7C428.7 148 471.3 153 514.2 154.8C557 156.7 600 155.3 642.8 152.2C685.7 149 728.3 144 771.2 142.7C814 141.3 857 143.7 878.5 144.8L900 146L900 201L878.5 201C857 201 814 201 771.2 201C728.3 201 685.7 201 642.8 201C600 201 557 201 514.2 201C471.3 201 428.7 201 385.8 201C343 201 300 201 257.2 201C214.3 201 171.7 201 128.8 201C86 201 43 201 21.5 201L0 201Z" fill="#2f4156"></path><path d="M0 154L21.5 152.8C43 151.7 86 149.3 128.8 151.5C171.7 153.7 214.3 160.3 257.2 161C300 161.7 343 156.3 385.8 152.7C428.7 149 471.3 147 514.2 147.8C557 148.7 600 152.3 642.8 153.8C685.7 155.3 728.3 154.7 771.2 155.7C814 156.7 857 159.3 878.5 160.7L900 162L900 201L878.5 201C857 201 814 201 771.2 201C728.3 201 685.7 201 642.8 201C600 201 557 201 514.2 201C471.3 201 428.7 201 385.8 201C343 201 300 201 257.2 201C214.3 201 171.7 201 128.8 201C86 201 43 201 21.5 201L0 201Z" fill="#536479"></path><path d="M0 175L21.5 172.2C43 169.3 86 163.7 128.8 161.5C171.7 159.3 214.3 160.7 257.2 163.2C300 165.7 343 169.3 385.8 169C428.7 168.7 471.3 164.3 514.2 164.3C557 164.3 600 168.7 642.8 169.5C685.7 170.3 728.3 167.7 771.2 167.3C814 167 857 169 878.5 170L900 171L900 201L878.5 201C857 201 814 201 771.2 201C728.3 201 685.7 201 642.8 201C600 201 557 201 514.2 201C471.3 201 428.7 201 385.8 201C343 201 300 201 257.2 201C214.3 201 171.7 201 128.8 201C86 201 43 201 21.5 201L0 201Z" fill="#78899e"></path><path d="M0 177L21.5 176.2C43 175.3 86 173.7 128.8 174.3C171.7 175 214.3 178 257.2 178C300 178 343 175 385.8 173.8C428.7 172.7 471.3 173.3 514.2 173C557 172.7 600 171.3 642.8 172.3C685.7 173.3 728.3 176.7 771.2 176.5C814 176.3 857 172.7 878.5 170.8L900 169L900 201L878.5 201C857 201 814 201 771.2 201C728.3 201 685.7 201 642.8 201C600 201 557 201 514.2 201C471.3 201 428.7 201 385.8 201C343 201 300 201 257.2 201C214.3 201 171.7 201 128.8 201C86 201 43 201 21.5 201L0 201Z" fill="#9fb0c4"></path><path d="M0 187L21.5 185.8C43 184.7 86 182.3 128.8 181.5C171.7 180.7 214.3 181.3 257.2 182.3C300 183.3 343 184.7 385.8 184.8C428.7 185 471.3 184 514.2 183.2C557 182.3 600 181.7 642.8 182.7C685.7 183.7 728.3 186.3 771.2 186.7C814 187 857 185 878.5 184L900 183L900 201L878.5 201C857 201 814 201 771.2 201C728.3 201 685.7 201 642.8 201C600 201 557 201 514.2 201C471.3 201 428.7 201 385.8 201C343 201 300 201 257.2 201C214.3 201 171.7 201 128.8 201C86 201 43 201 21.5 201L0 201Z" fill="#c8d9ec"></path></svg>