<svg id="visual" viewBox="0 0 900 300" width="900" height="300" xmlns="http://www.w3.org/2000/svg" xmlns:xlink="http://www.w3.org/1999/xlink" version="1.1"><rect x="0" y="0" width="900" height="300" fill="none"></rect><path d="M0 177L25 178.3C50 179.7 100 182.3 150 179.7C200 177 250 169 300 168.7C350 168.3 400 175.7 450 176.3C500 177 550 171 600 167C650 163 700 161 750 160.2C800 159.3 850 159.7 875 159.8L900 160L900 301L875 301C850 301 800 301 750 301C700 301 650 301 600 301C550 301 500 301 450 301C400 301 350 301 300 301C250 301 200 301 150 301C100 301 50 301 25 301L0 301Z" fill="#2f4156"></path><path d="M0 190L25 191.7C50 193.3 100 196.7 150 200C200 203.3 250 206.7 300 206.2C350 205.7 400 201.3 450 200C500 198.7 550 200.3 600 200C650 199.7 700 197.3 750 197C800 196.7 850 198.3 875 199.2L900 200L900 301L875 301C850 301 800 301 750 301C700 301 650 301 600 301C550 301 500 301 450 301C400 301 350 301 300 301C250 301 200 301 150 301C100 301 50 301 25 301L0 301Z" fill="#5f7085"></path><path d="M0 231L25 232C50 233 100 235 150 235.3C200 235.7 250 234.3 300 232.8C350 231.3 400 229.7 450 228.2C500 226.7 550 225.3 600 227C650 228.7 700 233.3 750 236C800 238.7 850 239.3 875 239.7L900 240L900 301L875 301C850 301 800 301 750 301C700 301 650 301 600 301C550 301 500 301 450 301C400 301 350 301 300 301C250 301 200 301 150 301C100 301 50 301 25 301L0 301Z" fill="#92a3b7"></path><path d="M0 263L25 262.2C50 261.3 100 259.7 150 260.5C200 261.3 250 264.7 300 264C350 263.3 400 258.7 450 259C500 259.3 550 264.7 600 267.2C650 269.7 700 269.3 750 269C800 268.7 850 268.3 875 268.2L900 268L900 301L875 301C850 301 800 301 750 301C700 301 650 301 600 301C550 301 500 301 450 301C400 301 350 301 300 301C250 301 200 301 150 301C100 301 50 301 25 301L0 301Z" fill="#c8d9ec"></path></svg>