<svg id="visual" viewBox="0 0 900 250" width="900" height="250" xmlns="http://www.w3.org/2000/svg" xmlns:xlink="http://www.w3.org/1999/xlink" version="1.1"><rect width="900" height="250" fill="#F5EFEB"></rect><g><g transform="translate(96 88)"><path d="M0 -42.4L36.7 -21.2L36.7 21.2L0 42.4L-36.7 21.2L-36.7 -21.2Z" fill="#fde28a"></path></g><g transform="translate(691 109)"><path d="M0 -29L25.1 -14.5L25.1 14.5L0 29L-25.1 14.5L-25.1 -14.5Z" fill="#fde28a"></path></g><g transform="translate(251 161)"><path d="M0 -34L29.4 -17L29.4 17L0 34L-29.4 17L-29.4 -17Z" fill="#fde28a"></path></g><g transform="translate(327 118)"><path d="M0 -31L26.8 -15.5L26.8 15.5L0 31L-26.8 15.5L-26.8 -15.5Z" fill="#fde28a"></path></g><g transform="translate(606 111)"><path d="M0 -32L27.7 -16L27.7 16L0 32L-27.7 16L-27.7 -16Z" fill="#fde28a"></path></g><g transform="translate(436 63)"><path d="M0 -26L22.5 -13L22.5 13L0 26L-22.5 13L-22.5 -13Z" fill="#fde28a"></path></g><g transform="translate(249 62)"><path d="M0 -29L25.1 -14.5L25.1 14.5L0 29L-25.1 14.5L-25.1 -14.5Z" fill="#fde28a"></path></g><g transform="translate(851 191)"><path d="M0 -41L35.5 -20.5L35.5 20.5L0 41L-35.5 20.5L-35.5 -20.5Z" fill="#fde28a"></path></g><g transform="translate(847 77)"><path d="M0 -29L25.1 -14.5L25.1 14.5L0 29L-25.1 14.5L-25.1 -14.5Z" fill="#fde28a"></path></g><g transform="translate(167 202)"><path d="M0 -39L33.8 -19.5L33.8 19.5L0 39L-33.8 19.5L-33.8 -19.5Z" fill="#fde28a"></path></g><g transform="translate(43 157)"><path d="M0 -27L23.4 -13.5L23.4 13.5L0 27L-23.4 13.5L-23.4 -13.5Z" fill="#fde28a"></path></g><g transform="translate(489 171)"><path d="M0 -31L26.8 -15.5L26.8 15.5L0 31L-26.8 15.5L-26.8 -15.5Z" fill="#fde28a"></path></g><g transform="translate(392 193)"><path d="M0 -34L29.4 -17L29.4 17L0 34L-29.4 17L-29.4 -17Z" fill="#fde28a"></path></g><g transform="translate(743 182)"><path d="M0 -27L23.4 -13.5L23.4 13.5L0 27L-23.4 13.5L-23.4 -13.5Z" fill="#fde28a"></path></g><g transform="translate(642 204)"><path d="M0 -31L26.8 -15.5L26.8 15.5L0 31L-26.8 15.5L-26.8 -15.5Z" fill="#fde28a"></path></g><g transform="translate(520 79)"><path d="M0 -31L26.8 -15.5L26.8 15.5L0 31L-26.8 15.5L-26.8 -15.5Z" fill="#fde28a"></path></g><g transform="translate(751 44)"><path d="M0 -37L32 -18.5L32 18.5L0 37L-32 18.5L-32 -18.5Z" fill="#fde28a"></path></g></g></svg>