<svg id="visual" viewBox="0 0 900 600" width="900" height="600" xmlns="http://www.w3.org/2000/svg" xmlns:xlink="http://www.w3.org/1999/xlink" version="1.1"><rect x="0" y="0" width="900" height="600" fill="#2f4156"></rect><defs><linearGradient id="grad1_0" x1="33.3%" y1="100%" x2="100%" y2="0%"><stop offset="20%" stop-color="#2f4156" stop-opacity="1"></stop><stop offset="80%" stop-color="#2f4156" stop-opacity="1"></stop></linearGradient></defs><defs><linearGradient id="grad2_0" x1="0%" y1="100%" x2="66.7%" y2="0%"><stop offset="20%" stop-color="#2f4156" stop-opacity="1"></stop><stop offset="80%" stop-color="#2f4156" stop-opacity="1"></stop></linearGradient></defs><g transform="translate(900, 600)"><path d="M-459.7 0C-400.3 -52.6 -340.9 -105.2 -310 -179C-279.2 -252.8 -276.8 -347.8 -229.9 -398.1C-182.9 -448.4 -91.5 -454.1 0 -459.7L0 0Z" fill="#567c8d"></path></g><g transform="translate(0, 0)"><path d="M459.7 0C451.9 87.8 444.2 175.5 398.1 229.9C352.1 284.2 267.7 305 195 337.7C122.3 370.5 61.1 415.1 0 459.7L0 0Z" fill="#567c8d"></path></g></svg>